<svg width="210" height="263" viewBox="0 0 210 263" fill="none" xmlns="http://www.w3.org/2000/svg">
<g clip-path="url(#clip0_116_96)">
<path d="M169.68 228.341C106.865 288.458 29.9306 268.312 8.37496 183.998C-3.59743 137.16 -6.89923 87.6935 27.2194 47.5085C79.0282 -13.5202 147.104 -18.0805 190.94 47.3476C223.851 96.4656 212.469 187.351 169.68 228.341Z" fill="black"/>
<path d="M98.1149 52.0957C99.1887 53.0346 99.6987 54.3491 99.6987 55.9855V65.294C99.6987 73.154 97.7122 79.5385 93.7662 84.4476C89.8201 89.3836 84.2903 92.3612 77.2035 93.4343V109.101C77.2035 110.683 76.6666 111.971 75.566 112.963C74.4654 113.929 73.0427 114.412 71.271 114.412C69.4993 114.412 68.0766 113.929 67.0296 112.99C65.9559 112.051 65.4459 110.764 65.4459 109.101V93.4343C58.3054 92.3612 52.7487 89.3836 48.8026 84.5013C44.8566 79.5921 42.8701 73.2076 42.8701 65.294V55.9855C42.8701 54.3223 43.407 53.0346 44.4539 52.0957C45.5277 51.1568 46.9235 50.674 48.6952 50.674C50.4669 50.674 51.8897 51.1568 52.9903 52.1225C54.0909 53.0883 54.6278 54.3759 54.6278 55.9855V65.5354C54.6278 71.6785 56.0505 76.3731 58.9228 79.6458C61.7951 82.9185 65.9022 84.5549 71.271 84.5549C76.6398 84.5549 80.7737 82.9185 83.6192 79.6458C86.4646 76.3731 87.9142 71.6517 87.9142 65.5354V55.9855C87.9142 54.4027 88.4511 53.1151 89.5517 52.1225C90.6523 51.1568 92.075 50.674 93.8467 50.674C95.6184 50.674 97.0411 51.1568 98.0881 52.0957H98.1149Z" fill="white"/>
<path d="M110.383 142.418C109.309 141.479 108.799 140.165 108.799 138.528V107.545C108.799 98.9871 111.242 92.2807 116.154 87.452C121.067 82.6234 127.885 80.1823 136.609 80.1823C142.327 80.1823 147.293 81.2821 151.481 83.455C155.668 85.6279 158.89 88.7933 161.091 92.9245C163.292 97.0557 164.419 101.938 164.419 107.545V138.528C164.419 140.192 163.883 141.479 162.836 142.418C161.762 143.357 160.339 143.84 158.567 143.84C156.796 143.84 155.373 143.357 154.272 142.391C153.172 141.426 152.635 140.138 152.635 138.528V124.096H120.556V138.528C120.556 140.111 120.02 141.399 118.919 142.391C117.818 143.357 116.396 143.84 114.624 143.84C112.852 143.84 111.43 143.357 110.383 142.418ZM152.635 114.975V107.276C152.635 101.375 151.293 96.9215 148.608 93.9439C145.924 90.9662 141.924 89.464 136.609 89.464C125.925 89.464 120.583 95.3925 120.583 107.249V114.948H152.662L152.635 114.975Z" fill="white"/>
<path d="M44.4266 190.544C43.3528 189.605 42.8428 188.317 42.8428 186.654V153.283C42.8428 145.423 45.2856 139.306 50.198 134.88C55.1104 130.454 61.902 128.254 70.5725 128.254C79.2431 128.254 86.0346 130.481 90.9471 134.88C95.8595 139.306 98.3023 145.449 98.3023 153.283V186.654C98.3023 188.317 97.7654 189.605 96.7185 190.544C95.6448 191.483 94.2489 191.965 92.4772 191.965C90.7055 191.965 89.2828 191.483 88.1822 190.517C87.0816 189.551 86.5447 188.263 86.5447 186.654V153.014C86.5447 147.998 85.1756 144.162 82.4644 141.506C79.7532 138.85 75.7803 137.509 70.5994 137.509C65.4185 137.509 61.4456 138.85 58.7344 141.506C56.0231 144.162 54.6541 147.998 54.6541 153.014V186.654C54.6541 188.237 54.1172 189.524 53.0166 190.517C51.916 191.483 50.4933 191.965 48.7216 191.965C46.9499 191.965 45.5272 191.483 44.4803 190.544H44.4266Z" fill="white"/>
<path d="M135.24 220.052C134.166 219.113 133.656 217.825 133.656 216.162V163.047C133.656 161.384 134.193 160.096 135.24 159.157C136.314 158.218 137.71 157.736 139.481 157.736C141.253 157.736 142.622 158.218 143.723 159.157C144.85 160.096 145.414 161.411 145.414 163.047V216.162C145.414 217.825 144.85 219.113 143.723 220.052C142.595 220.991 141.173 221.474 139.481 221.474C137.79 221.474 136.287 220.991 135.24 220.052Z" fill="white"/>
</g>
<defs>
<clipPath id="clip0_116_96">
<rect width="210" height="263" fill="white"/>
</clipPath>
</defs>
</svg>
